<svg width="816" height="275" viewBox="0 0 816 275" fill="none" xmlns="http://www.w3.org/2000/svg">
<path d="M400.368 64.126L392.12 76.0872L408.117 87.1142L416.364 75.153L400.368 64.126Z" fill="#000E36" fill-opacity="0.97"/>
<path d="M692.974 156.534C690.164 160.111 687.332 165.009 682.846 166.285C680.875 166.832 678.926 166.399 678.246 165.625C677.725 165.055 676.298 162.458 679.56 153.299C686.494 133.956 695.353 115.228 705.866 97.6167L688.85 88.1845C677.702 106.821 668.345 126.643 661.003 147.125C660.324 148.993 659.168 152.296 658.443 156.261C646.072 163.551 640.838 164.326 638.889 164.326C636.941 164.326 638.096 164.258 638.051 164.28C637.938 164.144 634.992 159.473 640.792 139.447C644.214 127.599 649.992 112.836 657.922 95.5663C659.508 92.126 661.139 88.7085 662.793 85.3594L680.875 86.977L682.483 68.796L671.811 67.8391C677.408 57.3132 681.713 49.9087 681.804 49.772L665.535 40.522C665.15 41.1827 658.942 51.868 651.578 66.0392L629.101 64.0343L627.492 82.2153L642.877 83.6051C642.197 85.0176 641.54 86.453 640.883 87.8883C632.568 105.978 626.495 121.607 622.802 134.321C620.491 142.249 618.248 151.886 618.52 160.521C612.651 164.463 609.343 165.625 607.87 165.944C607.349 163.779 606.669 157.468 610.317 142.226C613.014 130.789 617.568 116.572 623.822 99.9179L615.982 96.9333C611.745 91.9209 606.783 88.4807 601.367 86.9314C591.262 84.0607 579.729 87.6377 570.507 96.5004C560.719 105.91 552.789 117.461 547.396 129.855C544.088 137.465 539.284 144.322 533.348 150.109L528.001 155.304C530.493 145.644 535.478 129.764 545.311 103.973C548.914 94.5866 545.425 90.2806 541.845 88.344C533.914 84.0152 527.457 91.602 519.957 100.396C514.972 106.252 508.401 114.545 500.403 125.025C495.554 131.381 490.751 137.806 486.604 143.457C490.003 129.696 494.897 113.246 499.406 101.444C503.009 91.9893 498.704 87.9567 495.826 86.3846C487.737 81.9647 481.484 89.5743 472.035 101.034C466.121 108.188 458.259 118.304 448.652 131.131C448.086 131.905 447.474 132.68 446.907 133.455L465.079 71.3933L448.131 64.9912L445.82 70.0718C430.05 104.68 413.781 143.867 382.219 164.987C381.154 165.488 380.134 165.898 379.183 166.171C376.645 166.878 375.784 165.944 375.467 165.579C374.945 165.01 373.518 162.412 376.781 153.253C383.714 133.91 392.573 115.183 403.087 97.5712L385.935 88.1389C374.787 106.776 365.429 126.597 358.088 147.056C357.34 149.152 355.935 153.094 355.278 157.673C352.582 159.974 349.568 161.957 346.396 163.46C345.173 157.901 345.807 151.317 347.053 144.687C347.053 144.641 347.099 144.619 347.121 144.55H347.076C347.846 140.404 348.889 136.257 349.886 132.293C350.226 130.926 350.565 129.627 350.86 128.329C352.197 122.724 353.692 117.028 355.301 111.355C361.101 90.759 368.284 69.844 377.279 47.3798L360.444 40.5448C354.531 55.2855 349.41 69.4111 344.878 83.2178C343.292 82.3748 341.661 81.7141 340.007 81.2128C329.72 78.2054 317.96 81.9419 308.603 91.2374C298.95 100.806 291.088 112.494 285.65 125.048C281.141 135.46 274.706 144.937 266.595 152.843L266.028 153.39C268.521 143.73 273.505 127.873 283.339 102.059C286.942 92.6044 282.637 88.5718 279.759 86.9998C271.67 82.5798 265.416 90.1894 255.968 101.649C250.054 108.803 242.192 118.919 232.585 131.746C232.018 132.521 231.407 133.295 230.84 134.07L249.012 72.0084L232.064 65.6063C204.602 125.686 179.497 152.456 169.21 161.729C173.017 146.555 184.686 117.825 196.332 93.6753L180.494 84.8354C163.433 112.13 142.247 142.34 128.607 157.696C133.048 140.677 142.927 112.471 153.554 85.3594C155.751 80.2787 157.904 74.9474 159.966 69.3428L143.063 62.7129C143.063 62.7129 140.707 68.4998 137.308 77.1802C120.473 116.185 99.6048 138.991 86.871 150.292L86.6444 149.995C80.3681 155.441 73.8879 161.068 66.6827 163.278C61.5393 164.85 54.47 164.235 51.4791 160.043C50.6408 158.904 50.0516 157.332 49.6438 155.372C64.3489 141.224 76.9014 127.098 87.5281 112.745C107.399 85.9973 119.906 58.384 124.755 30.6569C127.248 16.4629 123.124 5.54977 113.743 1.47157C105.836 -1.9687 96.5007 0.696941 88.0719 8.69385C76.1084 20.0627 68.1554 34.8262 61.9018 47.5848C51.7963 68.3175 43.4355 89.8477 36.9779 111.993C33.6925 123.293 30.7923 135.391 30.8376 148.036C21.4572 156.694 11.2157 165.42 0 174.237L11.1931 188.613C19.7578 181.869 27.7561 175.171 35.3013 168.518C35.7091 169.224 36.1396 169.908 36.6154 170.591C43.7754 180.753 58.2539 184.922 71.894 180.753C76.403 179.363 80.4588 177.312 84.1747 174.943L84.2426 175.102C85.1716 174.556 96.6366 167.766 111.41 151.727C105.722 173.462 108.034 178.679 111.727 182.416C113.834 184.557 116.553 185.674 119.476 185.674C122.399 185.674 122.671 185.355 124.279 184.717C131.235 181.892 141.114 171.617 151.378 158.812C147.663 176.356 151.99 180.16 154.46 182.348C157.927 185.423 164.18 187.747 174.15 181.231H174.172C175.305 180.479 189.444 170.933 209.292 143.001L198.802 178.862L214.866 186.767C227.26 169.429 240.606 151.271 252.003 136.303C241.648 169.521 245.07 175.695 250.983 179.636C259.503 185.309 268.271 176.766 271.149 173.941L278.671 166.627C280.756 174.054 285.854 179.796 292.47 182.006C294.577 182.712 296.639 183.008 298.656 183.008C306.563 183.008 313.27 178.474 315.831 176.743C320.294 173.735 324.554 170.341 328.542 166.695C328.768 167.88 329.04 169.019 329.38 170.159C331.465 177.312 335.543 180.365 338.647 181.664C340.596 182.484 342.477 182.78 344.266 182.78C348.096 182.78 351.268 181.368 352.582 180.798C355.052 179.727 357.385 178.406 359.697 176.993C359.923 177.29 360.127 177.586 360.399 177.882C364.409 182.348 369.961 184.74 375.965 184.74C381.97 184.74 380.27 184.444 382.445 183.828C390.512 181.573 400.164 175.102 405.76 168.268C412.309 162.184 418.222 155.509 423.615 148.378L414.892 178.155L430.956 186.061C444.37 167.333 458.848 147.626 470.812 132.019C470.109 134.594 469.452 137.146 468.863 139.583C462.224 166.468 462.542 175.945 470.109 180.092C478.969 184.945 485.97 175.239 488.281 172.05C496.868 160.088 506.09 147.626 514.451 136.69C503.553 171.161 506.974 177.449 513.001 181.459C515.04 182.826 517.102 183.373 519.096 183.373C525.395 183.373 530.969 177.928 533.167 175.809L540.825 168.336C540.825 168.336 540.848 168.518 540.87 168.586C542.887 175.945 548.053 181.573 554.669 183.715C556.708 184.375 558.77 184.649 560.719 184.649C568.468 184.649 575.084 180.32 577.576 178.679C581.927 175.832 586.073 172.619 589.993 169.179C591.058 174.487 593.414 178.93 597.787 181.755C600.642 183.601 603.724 184.398 606.919 184.398C612.9 184.398 619.313 181.596 625.43 177.814C625.793 178.133 626.11 178.474 626.495 178.771C629.962 181.413 634.018 182.484 638.345 182.484C645.687 182.484 653.798 179.386 661.366 175.444C661.91 176.287 662.499 177.085 663.201 177.882C667.212 182.348 673.193 184.808 679.492 184.808C685.791 184.808 683.933 184.512 686.131 183.897C695.761 181.208 702.649 173.508 707.022 167.926C709.016 165.397 718.736 153.026 730.518 135.847L718.532 176.766L734.597 184.671C747.127 167.151 760.608 148.811 772.051 133.751C760.178 172.893 766.363 177.016 770.804 179.978C776.492 183.76 783.221 181.915 790.879 174.465L815.078 150.861L802.458 137.738L785.283 154.461C788.16 142.431 794.074 123.567 803.024 100.1C806.627 90.6451 802.322 86.6125 799.444 85.0404C791.355 80.6205 785.102 88.2301 775.653 99.69C769.739 106.844 761.877 116.96 752.27 129.787C751.704 130.561 751.115 131.336 750.525 132.111L768.697 70.0491L751.749 63.647C732.308 106.183 696.803 151.499 692.838 156.534M54.47 116.982C59.5907 99.5305 65.9802 82.5798 73.3894 66.0164C80.2775 50.615 87.8906 35.0996 99.6275 22.7967C100.738 21.6347 102.097 20.4044 103.706 20.45C105.473 20.5183 106.878 22.1815 107.218 23.9358C107.558 25.6901 107.127 27.49 106.697 29.2215C99.9673 55.9007 89.4767 79.6864 72.9589 101.832C66.6373 110.375 59.5454 118.851 51.7057 127.326C52.544 123.795 53.4957 120.332 54.47 116.937V116.982ZM338.149 106.548C337.877 108.234 337.446 109.874 337.22 111.127C335.883 118.532 333.617 125.936 330.785 132.908C328.134 139.424 324.169 145.325 319.343 150.405C314.38 155.646 308.331 160.817 301.828 163.961C300.74 164.485 299.517 164.941 298.384 164.554C296.911 164.03 296.299 162.321 296.05 160.772C295.257 155.623 296.571 150.2 297.863 145.234C299.154 140.267 300.718 135.938 302.689 131.495C306.654 122.61 312.024 114.362 318.414 107.049C318.595 106.821 318.799 106.616 319.003 106.388C321.269 103.859 323.693 101.399 326.729 99.8723C329.561 98.4597 334.773 97.3433 337.22 100.1C338.602 101.649 338.557 104.11 338.171 106.525L338.149 106.548ZM592.032 137.738C591.126 139.561 590.129 141.315 589.019 143.001C585.62 148.218 581.383 152.889 576.625 156.899C574.246 158.904 571.731 160.772 569.102 162.435C566.474 164.098 564.253 165.784 561.557 166.285C561.104 166.376 560.651 166.422 560.22 166.285C559.495 166.058 559.042 165.374 558.725 164.668C557.479 161.843 558.023 158.448 558.521 155.509C561.263 138.763 570.19 122.086 583.014 109.76C586.051 106.844 590.129 104.178 594.502 104.269C601.526 104.429 599.849 112.904 598.83 117.529C597.312 124.341 595.204 131.381 592.032 137.738Z" fill="#000E36" fill-opacity="0.97"/>
<path d="M703.216 64.1479L694.968 76.1091L711.35 86.5211L719.598 74.5599L703.216 64.1479Z" fill="#000E36" fill-opacity="0.97"/>
<path d="M18.0873 256.408C16.7953 256.408 15.5373 256.283 14.3133 256.034C13.1119 255.807 12.0126 255.49 11.0153 255.082C10.0406 254.674 9.21327 254.232 8.53327 253.756L10.7773 249.506C11.5253 250.027 12.3186 250.481 13.1573 250.866C14.0186 251.229 14.9139 251.512 15.8433 251.716C16.7726 251.897 17.7019 251.988 18.6313 251.988C19.6513 251.988 20.5239 251.875 21.2493 251.648C21.9973 251.421 22.5639 251.104 22.9493 250.696C23.3573 250.288 23.5613 249.789 23.5613 249.2C23.5613 248.656 23.3459 248.214 22.9153 247.874C22.4846 247.534 21.9179 247.251 21.2153 247.024C20.5353 246.775 19.7759 246.537 18.9373 246.31C18.0986 246.083 17.2486 245.823 16.3873 245.528C15.5486 245.211 14.7779 244.825 14.0753 244.372C13.3953 243.896 12.8399 243.295 12.4093 242.57C11.9786 241.845 11.7633 240.938 11.7633 239.85C11.7633 238.218 12.2053 236.801 13.0893 235.6C13.9959 234.399 15.2653 233.469 16.8973 232.812C18.5293 232.132 20.4446 231.792 22.6433 231.792C24.2526 231.792 25.7713 231.973 27.1993 232.336C28.6273 232.676 29.8513 233.175 30.8713 233.832L28.7973 238.048C27.8906 237.436 26.8819 236.983 25.7713 236.688C24.6606 236.371 23.5159 236.212 22.3373 236.212C21.2719 236.212 20.3539 236.337 19.5833 236.586C18.8353 236.835 18.2573 237.187 17.8493 237.64C17.4639 238.071 17.2713 238.569 17.2713 239.136C17.2713 239.703 17.4753 240.167 17.8833 240.53C18.3139 240.87 18.8806 241.165 19.5833 241.414C20.2859 241.641 21.0566 241.867 21.8953 242.094C22.7339 242.321 23.5726 242.581 24.4113 242.876C25.2499 243.171 26.0206 243.545 26.7233 243.998C27.4259 244.451 27.9926 245.029 28.4233 245.732C28.8539 246.412 29.0693 247.273 29.0693 248.316C29.0693 249.948 28.6159 251.376 27.7093 252.6C26.8026 253.801 25.5219 254.742 23.8673 255.422C22.2353 256.079 20.3086 256.408 18.0873 256.408ZM49.2549 256.408C46.8522 256.408 44.7782 255.977 43.0329 255.116C41.3102 254.232 39.9842 253.019 39.0549 251.478C38.1256 249.914 37.6609 248.112 37.6609 246.072C37.6609 244.032 38.0122 242.151 38.7149 240.428C39.4176 238.683 40.4149 237.175 41.7069 235.906C43.0216 234.614 44.5742 233.605 46.3649 232.88C48.1782 232.155 50.1842 231.792 52.3829 231.792C54.7856 231.792 56.8482 232.234 58.5709 233.118C60.3162 233.979 61.6536 235.192 62.5829 236.756C63.5122 238.297 63.9769 240.088 63.9769 242.128C63.9769 244.168 63.6256 246.061 62.9229 247.806C62.2202 249.529 61.2116 251.036 59.8969 252.328C58.6049 253.597 57.0522 254.595 55.2389 255.32C53.4482 256.045 51.4536 256.408 49.2549 256.408ZM49.7309 251.716C51.0682 251.716 52.2696 251.478 53.3349 251.002C54.4229 250.503 55.3409 249.823 56.0889 248.962C56.8369 248.101 57.4036 247.115 57.7889 246.004C58.1969 244.871 58.4009 243.681 58.4009 242.434C58.4009 241.255 58.1516 240.224 57.6529 239.34C57.1542 238.433 56.4176 237.731 55.4429 237.232C54.4909 236.733 53.3122 236.484 51.9069 236.484C50.5696 236.484 49.3682 236.733 48.3029 237.232C47.2376 237.708 46.3196 238.377 45.5489 239.238C44.8009 240.099 44.2229 241.097 43.8149 242.23C43.4296 243.341 43.2369 244.519 43.2369 245.766C43.2369 246.945 43.4862 247.987 43.9849 248.894C44.5062 249.778 45.2429 250.469 46.1949 250.968C47.1696 251.467 48.3482 251.716 49.7309 251.716ZM78.7584 242.91H90.2164L89.2984 247.33H77.8744L78.7584 242.91ZM76.5824 256H71.0404L75.8004 232.2H93.7864L92.8684 236.62H80.4244L76.5824 256ZM103.291 256L107.133 236.688H99.5173L100.435 232.2H121.175L120.257 236.688H112.675L108.799 256H103.291ZM129.827 256L126.767 232.2H132.241L134.859 253.246H132.037L143.291 232.2H148.391L150.941 253.246H148.221L159.407 232.2H164.881L152.301 256H146.385L144.005 237.504H145.671L135.743 256H129.827ZM164.418 256L179.786 232.2H185.26L191.108 256H185.6L180.976 234.92H183.152L170.3 256H164.418ZM170.776 250.9L173.02 246.718H185.294L185.94 250.9H170.776ZM199.017 256L203.777 232.2H213.467C216.437 232.2 218.726 232.846 220.335 234.138C221.967 235.43 222.783 237.243 222.783 239.578C222.783 241.573 222.307 243.307 221.355 244.78C220.426 246.231 219.089 247.353 217.343 248.146C215.621 248.939 213.581 249.336 211.223 249.336H203.471L206.361 246.922L204.559 256H199.017ZM214.317 256L209.455 247.364H215.235L220.131 256H214.317ZM206.225 247.568L204.321 244.95H211.427C213.263 244.95 214.68 244.542 215.677 243.726C216.697 242.887 217.207 241.675 217.207 240.088C217.207 238.932 216.811 238.082 216.017 237.538C215.247 236.971 214.159 236.688 212.753 236.688H206.055L208.945 234.002L206.225 247.568ZM237.381 241.788H248.839L247.989 246.072H236.531L237.381 241.788ZM235.817 251.58H248.805L247.887 256H229.459L234.219 232.2H252.205L251.287 236.62H238.809L235.817 251.58ZM277.709 250.798C276.961 250.798 276.281 250.628 275.669 250.288C275.057 249.948 274.569 249.483 274.207 248.894C273.844 248.282 273.663 247.591 273.663 246.82C273.663 245.913 273.867 245.12 274.275 244.44C274.683 243.76 275.227 243.227 275.907 242.842C276.587 242.434 277.357 242.23 278.219 242.23C278.967 242.23 279.635 242.4 280.225 242.74C280.837 243.08 281.324 243.545 281.687 244.134C282.049 244.723 282.231 245.403 282.231 246.174C282.231 247.058 282.027 247.851 281.619 248.554C281.211 249.257 280.667 249.812 279.987 250.22C279.307 250.605 278.547 250.798 277.709 250.798ZM305.473 256L310.233 232.2H315.775L311.899 251.512H323.833L322.915 256H305.473ZM343.376 256.408C340.973 256.408 338.899 255.977 337.154 255.116C335.431 254.232 334.105 253.019 333.176 251.478C332.247 249.914 331.782 248.112 331.782 246.072C331.782 244.032 332.133 242.151 332.836 240.428C333.539 238.683 334.536 237.175 335.828 235.906C337.143 234.614 338.695 233.605 340.486 232.88C342.299 232.155 344.305 231.792 346.504 231.792C348.907 231.792 350.969 232.234 352.692 233.118C354.437 233.979 355.775 235.192 356.704 236.756C357.633 238.297 358.098 240.088 358.098 242.128C358.098 244.168 357.747 246.061 357.044 247.806C356.341 249.529 355.333 251.036 354.018 252.328C352.726 253.597 351.173 254.595 349.36 255.32C347.569 256.045 345.575 256.408 343.376 256.408ZM343.852 251.716C345.189 251.716 346.391 251.478 347.456 251.002C348.544 250.503 349.462 249.823 350.21 248.962C350.958 248.101 351.525 247.115 351.91 246.004C352.318 244.871 352.522 243.681 352.522 242.434C352.522 241.255 352.273 240.224 351.774 239.34C351.275 238.433 350.539 237.731 349.564 237.232C348.612 236.733 347.433 236.484 346.028 236.484C344.691 236.484 343.489 236.733 342.424 237.232C341.359 237.708 340.441 238.377 339.67 239.238C338.922 240.099 338.344 241.097 337.936 242.23C337.551 243.341 337.358 244.519 337.358 245.766C337.358 246.945 337.607 247.987 338.106 248.894C338.627 249.778 339.364 250.469 340.316 250.968C341.291 251.467 342.469 251.716 343.852 251.716ZM377.674 256.408C375.271 256.408 373.186 255.977 371.418 255.116C369.672 254.232 368.312 253.019 367.338 251.478C366.386 249.914 365.91 248.112 365.91 246.072C365.91 244.055 366.261 242.173 366.964 240.428C367.689 238.683 368.709 237.175 370.024 235.906C371.338 234.614 372.914 233.605 374.75 232.88C376.586 232.155 378.626 231.792 380.87 231.792C383.136 231.792 385.097 232.155 386.752 232.88C388.429 233.583 389.778 234.603 390.798 235.94L386.854 239.136C386.06 238.184 385.154 237.504 384.134 237.096C383.136 236.688 381.969 236.484 380.632 236.484C379.226 236.484 377.957 236.722 376.824 237.198C375.713 237.651 374.761 238.297 373.968 239.136C373.174 239.975 372.562 240.961 372.132 242.094C371.701 243.205 371.486 244.417 371.486 245.732C371.486 246.933 371.746 247.987 372.268 248.894C372.789 249.778 373.56 250.469 374.58 250.968C375.622 251.467 376.892 251.716 378.388 251.716C379.521 251.716 380.609 251.523 381.652 251.138C382.694 250.753 383.703 250.152 384.678 249.336L386.786 253.518C385.584 254.447 384.19 255.161 382.604 255.66C381.04 256.159 379.396 256.408 377.674 256.408ZM381.958 252.668L383.726 243.726H388.758L386.786 253.518L381.958 252.668ZM396.832 256L401.592 232.2H407.134L402.374 256H396.832ZM421.724 256.408C420.432 256.408 419.174 256.283 417.95 256.034C416.749 255.807 415.65 255.49 414.652 255.082C413.678 254.674 412.85 254.232 412.17 253.756L414.414 249.506C415.162 250.027 415.956 250.481 416.794 250.866C417.656 251.229 418.551 251.512 419.48 251.716C420.41 251.897 421.339 251.988 422.268 251.988C423.288 251.988 424.161 251.875 424.886 251.648C425.634 251.421 426.201 251.104 426.586 250.696C426.994 250.288 427.198 249.789 427.198 249.2C427.198 248.656 426.983 248.214 426.552 247.874C426.122 247.534 425.555 247.251 424.852 247.024C424.172 246.775 423.413 246.537 422.574 246.31C421.736 246.083 420.886 245.823 420.024 245.528C419.186 245.211 418.415 244.825 417.712 244.372C417.032 243.896 416.477 243.295 416.046 242.57C415.616 241.845 415.4 240.938 415.4 239.85C415.4 238.218 415.842 236.801 416.726 235.6C417.633 234.399 418.902 233.469 420.534 232.812C422.166 232.132 424.082 231.792 426.28 231.792C427.89 231.792 429.408 231.973 430.836 232.336C432.264 232.676 433.488 233.175 434.508 233.832L432.434 238.048C431.528 237.436 430.519 236.983 429.408 236.688C428.298 236.371 427.153 236.212 425.974 236.212C424.909 236.212 423.991 236.337 423.22 236.586C422.472 236.835 421.894 237.187 421.486 237.64C421.101 238.071 420.908 238.569 420.908 239.136C420.908 239.703 421.112 240.167 421.52 240.53C421.951 240.87 422.518 241.165 423.22 241.414C423.923 241.641 424.694 241.867 425.532 242.094C426.371 242.321 427.21 242.581 428.048 242.876C428.887 243.171 429.658 243.545 430.36 243.998C431.063 244.451 431.63 245.029 432.06 245.732C432.491 246.412 432.706 247.273 432.706 248.316C432.706 249.948 432.253 251.376 431.346 252.6C430.44 253.801 429.159 254.742 427.504 255.422C425.872 256.079 423.946 256.408 421.724 256.408ZM445.148 256L448.99 236.688H441.374L442.292 232.2H463.032L462.114 236.688H454.532L450.656 256H445.148ZM466.676 256L471.436 232.2H476.978L472.218 256H466.676ZM495.784 256.408C493.358 256.408 491.262 255.977 489.494 255.116C487.748 254.232 486.4 253.019 485.448 251.478C484.496 249.914 484.02 248.112 484.02 246.072C484.02 244.055 484.371 242.173 485.074 240.428C485.799 238.683 486.808 237.175 488.1 235.906C489.414 234.614 490.967 233.605 492.758 232.88C494.571 232.155 496.588 231.792 498.81 231.792C500.94 231.792 502.822 232.155 504.454 232.88C506.086 233.605 507.321 234.648 508.16 236.008L504.182 239.272C503.57 238.365 502.788 237.674 501.836 237.198C500.884 236.722 499.75 236.484 498.436 236.484C497.098 236.484 495.886 236.722 494.798 237.198C493.71 237.651 492.769 238.309 491.976 239.17C491.205 240.009 490.616 240.995 490.208 242.128C489.8 243.261 489.596 244.463 489.596 245.732C489.596 246.933 489.856 247.987 490.378 248.894C490.899 249.778 491.658 250.469 492.656 250.968C493.653 251.467 494.854 251.716 496.26 251.716C497.484 251.716 498.628 251.501 499.694 251.07C500.759 250.617 501.722 249.914 502.584 248.962L505.848 252.294C504.601 253.745 503.116 254.799 501.394 255.456C499.694 256.091 497.824 256.408 495.784 256.408ZM521.811 256.408C520.519 256.408 519.261 256.283 518.037 256.034C516.835 255.807 515.736 255.49 514.739 255.082C513.764 254.674 512.937 254.232 512.257 253.756L514.501 249.506C515.249 250.027 516.042 250.481 516.881 250.866C517.742 251.229 518.637 251.512 519.567 251.716C520.496 251.897 521.425 251.988 522.355 251.988C523.375 251.988 524.247 251.875 524.973 251.648C525.721 251.421 526.287 251.104 526.673 250.696C527.081 250.288 527.285 249.789 527.285 249.2C527.285 248.656 527.069 248.214 526.639 247.874C526.208 247.534 525.641 247.251 524.939 247.024C524.259 246.775 523.499 246.537 522.661 246.31C521.822 246.083 520.972 245.823 520.111 245.528C519.272 245.211 518.501 244.825 517.799 244.372C517.119 243.896 516.563 243.295 516.133 242.57C515.702 241.845 515.487 240.938 515.487 239.85C515.487 238.218 515.929 236.801 516.813 235.6C517.719 234.399 518.989 233.469 520.621 232.812C522.253 232.132 524.168 231.792 526.367 231.792C527.976 231.792 529.495 231.973 530.923 232.336C532.351 232.676 533.575 233.175 534.595 233.832L532.521 238.048C531.614 237.436 530.605 236.983 529.495 236.688C528.384 236.371 527.239 236.212 526.061 236.212C524.995 236.212 524.077 236.337 523.307 236.586C522.559 236.835 521.981 237.187 521.573 237.64C521.187 238.071 520.995 238.569 520.995 239.136C520.995 239.703 521.199 240.167 521.607 240.53C522.037 240.87 522.604 241.165 523.307 241.414C524.009 241.641 524.78 241.867 525.619 242.094C526.457 242.321 527.296 242.581 528.135 242.876C528.973 243.171 529.744 243.545 530.447 243.998C531.149 244.451 531.716 245.029 532.147 245.732C532.577 246.412 532.793 247.273 532.793 248.316C532.793 249.948 532.339 251.376 531.433 252.6C530.526 253.801 529.245 254.742 527.591 255.422C525.959 256.079 524.032 256.408 521.811 256.408ZM560.635 250.798C559.887 250.798 559.207 250.628 558.595 250.288C557.983 249.948 557.496 249.483 557.133 248.894C556.77 248.282 556.589 247.591 556.589 246.82C556.589 245.913 556.793 245.12 557.201 244.44C557.609 243.76 558.153 243.227 558.833 242.842C559.513 242.434 560.284 242.23 561.145 242.23C561.893 242.23 562.562 242.4 563.151 242.74C563.763 243.08 564.25 243.545 564.613 244.134C564.976 244.723 565.157 245.403 565.157 246.174C565.157 247.058 564.953 247.851 564.545 248.554C564.137 249.257 563.593 249.812 562.913 250.22C562.233 250.605 561.474 250.798 560.635 250.798ZM588.4 256L593.16 232.2H602.85C605.819 232.2 608.108 232.846 609.718 234.138C611.35 235.43 612.166 237.243 612.166 239.578C612.166 241.573 611.69 243.307 610.738 244.78C609.808 246.231 608.471 247.353 606.726 248.146C605.003 248.939 602.963 249.336 600.606 249.336H592.854L595.744 246.922L593.942 256H588.4ZM603.7 256L598.838 247.364H604.618L609.514 256H603.7ZM595.608 247.568L593.704 244.95H600.81C602.646 244.95 604.062 244.542 605.06 243.726C606.08 242.887 606.59 241.675 606.59 240.088C606.59 238.932 606.193 238.082 605.4 237.538C604.629 236.971 603.541 236.688 602.136 236.688H595.438L598.328 234.002L595.608 247.568ZM631.183 256.408C628.781 256.408 626.707 255.977 624.961 255.116C623.239 254.232 621.913 253.019 620.983 251.478C620.054 249.914 619.589 248.112 619.589 246.072C619.589 244.032 619.941 242.151 620.643 240.428C621.346 238.683 622.343 237.175 623.635 235.906C624.95 234.614 626.503 233.605 628.293 232.88C630.107 232.155 632.113 231.792 634.311 231.792C636.714 231.792 638.777 232.234 640.499 233.118C642.245 233.979 643.582 235.192 644.511 236.756C645.441 238.297 645.905 240.088 645.905 242.128C645.905 244.168 645.554 246.061 644.851 247.806C644.149 249.529 643.14 251.036 641.825 252.328C640.533 253.597 638.981 254.595 637.167 255.32C635.377 256.045 633.382 256.408 631.183 256.408ZM631.659 251.716C632.997 251.716 634.198 251.478 635.263 251.002C636.351 250.503 637.269 249.823 638.017 248.962C638.765 248.101 639.332 247.115 639.717 246.004C640.125 244.871 640.329 243.681 640.329 242.434C640.329 241.255 640.08 240.224 639.581 239.34C639.083 238.433 638.346 237.731 637.371 237.232C636.419 236.733 635.241 236.484 633.835 236.484C632.498 236.484 631.297 236.733 630.231 237.232C629.166 237.708 628.248 238.377 627.477 239.238C626.729 240.099 626.151 241.097 625.743 242.23C625.358 243.341 625.165 244.519 625.165 245.766C625.165 246.945 625.415 247.987 625.913 248.894C626.435 249.778 627.171 250.469 628.123 250.968C629.098 251.467 630.277 251.716 631.659 251.716ZM652.969 256L657.729 232.2H669.221C671.805 232.2 673.777 232.665 675.137 233.594C676.52 234.523 677.211 235.872 677.211 237.64C677.211 239.136 676.814 240.394 676.021 241.414C675.25 242.434 674.219 243.205 672.927 243.726C671.635 244.247 670.23 244.508 668.711 244.508L669.595 243.148C671.59 243.148 673.176 243.613 674.355 244.542C675.556 245.449 676.157 246.763 676.157 248.486C676.157 250.163 675.692 251.569 674.763 252.702C673.856 253.813 672.598 254.64 670.989 255.184C669.38 255.728 667.532 256 665.447 256H652.969ZM659.293 251.852H665.787C667.306 251.852 668.496 251.569 669.357 251.002C670.241 250.413 670.683 249.551 670.683 248.418C670.683 247.534 670.354 246.911 669.697 246.548C669.062 246.163 668.201 245.97 667.113 245.97H659.837L660.653 241.958H666.841C667.793 241.958 668.609 241.833 669.289 241.584C669.992 241.335 670.524 240.961 670.887 240.462C671.25 239.941 671.431 239.317 671.431 238.592C671.431 237.799 671.125 237.232 670.513 236.892C669.901 236.529 669.04 236.348 667.929 236.348H662.353L659.293 251.852ZM696.749 256.408C694.346 256.408 692.272 255.977 690.527 255.116C688.804 254.232 687.478 253.019 686.549 251.478C685.62 249.914 685.155 248.112 685.155 246.072C685.155 244.032 685.506 242.151 686.209 240.428C686.912 238.683 687.909 237.175 689.201 235.906C690.516 234.614 692.068 233.605 693.859 232.88C695.672 232.155 697.678 231.792 699.877 231.792C702.28 231.792 704.342 232.234 706.065 233.118C707.81 233.979 709.148 235.192 710.077 236.756C711.006 238.297 711.471 240.088 711.471 242.128C711.471 244.168 711.12 246.061 710.417 247.806C709.714 249.529 708.706 251.036 707.391 252.328C706.099 253.597 704.546 254.595 702.733 255.32C700.942 256.045 698.948 256.408 696.749 256.408ZM697.225 251.716C698.562 251.716 699.764 251.478 700.829 251.002C701.917 250.503 702.835 249.823 703.583 248.962C704.331 248.101 704.898 247.115 705.283 246.004C705.691 244.871 705.895 243.681 705.895 242.434C705.895 241.255 705.646 240.224 705.147 239.34C704.648 238.433 703.912 237.731 702.937 237.232C701.985 236.733 700.806 236.484 699.401 236.484C698.064 236.484 696.862 236.733 695.797 237.232C694.732 237.708 693.814 238.377 693.043 239.238C692.295 240.099 691.717 241.097 691.309 242.23C690.924 243.341 690.731 244.519 690.731 245.766C690.731 246.945 690.98 247.987 691.479 248.894C692 249.778 692.737 250.469 693.689 250.968C694.664 251.467 695.842 251.716 697.225 251.716ZM723.133 256L726.975 236.688H719.359L720.277 232.2H741.017L740.099 236.688H732.517L728.641 256H723.133ZM744.66 256L749.42 232.2H754.962L750.202 256H744.66ZM773.768 256.408C771.343 256.408 769.246 255.977 767.478 255.116C765.733 254.232 764.384 253.019 763.432 251.478C762.48 249.914 762.004 248.112 762.004 246.072C762.004 244.055 762.356 242.173 763.058 240.428C763.784 238.683 764.792 237.175 766.084 235.906C767.399 234.614 768.952 233.605 770.742 232.88C772.556 232.155 774.573 231.792 776.794 231.792C778.925 231.792 780.806 232.155 782.438 232.88C784.07 233.605 785.306 234.648 786.144 236.008L782.166 239.272C781.554 238.365 780.772 237.674 779.82 237.198C778.868 236.722 777.735 236.484 776.42 236.484C775.083 236.484 773.87 236.722 772.782 237.198C771.694 237.651 770.754 238.309 769.96 239.17C769.19 240.009 768.6 240.995 768.192 242.128C767.784 243.261 767.58 244.463 767.58 245.732C767.58 246.933 767.841 247.987 768.362 248.894C768.884 249.778 769.643 250.469 770.64 250.968C771.638 251.467 772.839 251.716 774.244 251.716C775.468 251.716 776.613 251.501 777.678 251.07C778.744 250.617 779.707 249.914 780.568 248.962L783.832 252.294C782.586 253.745 781.101 254.799 779.378 255.456C777.678 256.091 775.808 256.408 773.768 256.408ZM799.795 256.408C798.503 256.408 797.245 256.283 796.021 256.034C794.82 255.807 793.72 255.49 792.723 255.082C791.748 254.674 790.921 254.232 790.241 253.756L792.485 249.506C793.233 250.027 794.026 250.481 794.865 250.866C795.726 251.229 796.622 251.512 797.551 251.716C798.48 251.897 799.41 251.988 800.339 251.988C801.359 251.988 802.232 251.875 802.957 251.648C803.705 251.421 804.272 251.104 804.657 250.696C805.065 250.288 805.269 249.789 805.269 249.2C805.269 248.656 805.054 248.214 804.623 247.874C804.192 247.534 803.626 247.251 802.923 247.024C802.243 246.775 801.484 246.537 800.645 246.31C799.806 246.083 798.956 245.823 798.095 245.528C797.256 245.211 796.486 244.825 795.783 244.372C795.103 243.896 794.548 243.295 794.117 242.57C793.686 241.845 793.471 240.938 793.471 239.85C793.471 238.218 793.913 236.801 794.797 235.6C795.704 234.399 796.973 233.469 798.605 232.812C800.237 232.132 802.152 231.792 804.351 231.792C805.96 231.792 807.479 231.973 808.907 232.336C810.335 232.676 811.559 233.175 812.579 233.832L810.505 238.048C809.598 237.436 808.59 236.983 807.479 236.688C806.368 236.371 805.224 236.212 804.045 236.212C802.98 236.212 802.062 236.337 801.291 236.586C800.543 236.835 799.965 237.187 799.557 237.64C799.172 238.071 798.979 238.569 798.979 239.136C798.979 239.703 799.183 240.167 799.591 240.53C800.022 240.87 800.588 241.165 801.291 241.414C801.994 241.641 802.764 241.867 803.603 242.094C804.442 242.321 805.28 242.581 806.119 242.876C806.958 243.171 807.728 243.545 808.431 243.998C809.134 244.451 809.7 245.029 810.131 245.732C810.562 246.412 810.777 247.273 810.777 248.316C810.777 249.948 810.324 251.376 809.417 252.6C808.51 253.801 807.23 254.742 805.575 255.422C803.943 256.079 802.016 256.408 799.795 256.408Z" fill="#000E36"/>
</svg>
